<svg width="300" height="300" viewBox="0 0 300 300" xmlns="http://www.w3.org/2000/svg">
  <!-- Background -->
  <rect width="300" height="300" fill="transparent"/>
  
  <!-- Grid -->
  <polygon points="150.0,130.0 167.3,160.0 132.7,160.0" fill="none" stroke="#e0e0e0" stroke-width="1"/>
    <polygon points="150.0,110.0 184.6,170.0 115.4,170.0" fill="none" stroke="#e0e0e0" stroke-width="1"/>
    <polygon points="150.0,90.0 202.0,180.0 98.0,180.0" fill="none" stroke="#e0e0e0" stroke-width="1"/>
    <polygon points="150.0,70.0 219.3,190.0 80.7,190.0" fill="none" stroke="#e0e0e0" stroke-width="1"/>
    <polygon points="150.0,50.0 236.6,200.0 63.4,200.0" fill="none" stroke="#e0e0e0" stroke-width="1"/>
  
  <!-- Axes -->
  <line x1="150" y1="150" x2="150.0" y2="50.0" stroke="#d0d0d0" stroke-width="1"/>
    <text x="150.0" y="30.0" font-size="12" fill="#666" text-anchor="start" dominant-baseline="middle">Ambition</text>
    <line x1="150" y1="150" x2="236.6" y2="200.0" stroke="#d0d0d0" stroke-width="1"/>
    <text x="253.9" y="210.0" font-size="12" fill="#666" text-anchor="end" dominant-baseline="middle">Structure</text>
    <line x1="150" y1="150" x2="63.4" y2="200.0" stroke="#d0d0d0" stroke-width="1"/>
    <text x="46.1" y="210.0" font-size="12" fill="#666" text-anchor="end" dominant-baseline="middle">Integrity</text>
  
  <!-- Data Polygon -->
  <polygon points="150.0,60.0 219.3,190.0 80.7,190.0" fill="#ff9f4022" stroke="#ff9f40" stroke-width="2"/>
  
  <!-- Data Points -->
  <circle cx="150.0" cy="60.0" r="4" fill="#ff9f40" stroke="white" stroke-width="2"/>
  <circle cx="219.3" cy="190.0" r="4" fill="#ff9f40" stroke="white" stroke-width="2"/>
  <circle cx="80.7" cy="190.0" r="4" fill="#ff9f40" stroke="white" stroke-width="2"/>
  
  <!-- Title -->
  <text x="150" y="20" font-size="14" font-weight="bold" fill="#333" text-anchor="middle">CDF</text>
  
  <!-- Score Legend -->
  <text x="150" y="290" font-size="11" fill="#666" text-anchor="middle">A:9 S:8 I:8</text>
</svg>